<?xml version="1.0" encoding="utf-8"?>
<!-- Generator: Adobe Illustrator 26.2.1, SVG Export Plug-In . SVG Version: 6.00 Build 0)  -->
<svg version="1.1" xmlns="http://www.w3.org/2000/svg" xmlns:xlink="http://www.w3.org/1999/xlink" x="0px" y="0px"
	 viewBox="0 0 750 500" style="enable-background:new 0 0 750 500;" xml:space="preserve">
<style type="text/css">
	.st0{fill:none;}
	.st1{fill:#272525;}
	.st2{fill:#F9F9F9;}
	.st3{clip-path:url(#SVGID_00000115490138185644664390000012972474334292499072_);}
	.st4{fill:#060000;}
	.st5{fill:none;stroke:#060000;stroke-width:1.3;stroke-miterlimit:10;}
	.st6{fill:none;stroke:#060000;stroke-width:2;stroke-miterlimit:10;}
	
		.st7{clip-path:url(#SVGID_00000115490138185644664390000012972474334292499072_);fill:url(#SVGID_00000175319631467070664060000018203574620107423391_);}
	
		.st8{clip-path:url(#SVGID_00000115490138185644664390000012972474334292499072_);fill:url(#SVGID_00000098914701581050175310000009868836083313088938_);}
	.st9{fill:none;stroke:#315AFE;stroke-width:2.5;stroke-miterlimit:10;}
	.st10{fill:none;stroke:#3F3F3F;stroke-width:1.5;stroke-miterlimit:10;}
	.st11{fill:none;stroke:#3D3D3D;stroke-width:2;stroke-miterlimit:10;}
	.st12{fill:#315AFE;stroke:#3D3D3D;stroke-width:2;stroke-miterlimit:10;}
	.st13{fill:#3F3F3F;}
	.st14{clip-path:url(#SVGID_00000115490138185644664390000012972474334292499072_);fill:#3F3F3F;}
	.st15{fill:#315AFE;}
	.st16{clip-path:url(#SVGID_00000115490138185644664390000012972474334292499072_);fill:#315AFE;}
	
		.st17{clip-path:url(#SVGID_00000115490138185644664390000012972474334292499072_);fill:none;stroke:#315AFE;stroke-width:19;stroke-miterlimit:10;}
</style>
<pattern  x="125" width="48" height="48" patternUnits="userSpaceOnUse" id="_x36__dpi_20_x25_" viewBox="2.4 -50.4 48 48" style="overflow:visible;">
	<g>
		<rect x="2.4" y="-50.4" class="st0" width="48" height="48"/>
		<g>
			<path class="st1" d="M26.4,0c1.32,0,2.4-1.07,2.4-2.4c0-1.32-1.08-2.4-2.4-2.4c-1.33,0-2.4,1.08-2.4,2.4C24-1.07,25.07,0,26.4,0z
				"/>
			<path class="st1" d="M50.4,0c1.32,0,2.4-1.07,2.4-2.4c0-1.32-1.08-2.4-2.4-2.4c-1.33,0-2.4,1.08-2.4,2.4C48-1.07,49.07,0,50.4,0z
				"/>
			<path class="st1" d="M26.4-24c1.32,0,2.4-1.07,2.4-2.4c0-1.32-1.08-2.4-2.4-2.4c-1.33,0-2.4,1.08-2.4,2.4
				C24-25.07,25.07-24,26.4-24z"/>
			<path class="st1" d="M50.4-24c1.32,0,2.4-1.07,2.4-2.4c0-1.32-1.08-2.4-2.4-2.4c-1.33,0-2.4,1.08-2.4,2.4
				C48-25.07,49.07-24,50.4-24z"/>
			<path class="st1" d="M38.4-12c1.32,0,2.4-1.07,2.4-2.4c0-1.32-1.08-2.4-2.4-2.4c-1.33,0-2.4,1.08-2.4,2.4
				C36-13.07,37.07-12,38.4-12z"/>
			<path class="st1" d="M14.4-12c1.32,0,2.4-1.07,2.4-2.4c0-1.32-1.08-2.4-2.4-2.4c-1.33,0-2.4,1.08-2.4,2.4
				C12-13.07,13.07-12,14.4-12z"/>
			<path class="st1" d="M38.4-36c1.32,0,2.4-1.07,2.4-2.4c0-1.32-1.08-2.4-2.4-2.4c-1.33,0-2.4,1.08-2.4,2.4
				C36-37.07,37.07-36,38.4-36z"/>
			<path class="st1" d="M14.4-36c1.32,0,2.4-1.07,2.4-2.4c0-1.32-1.08-2.4-2.4-2.4c-1.33,0-2.4,1.08-2.4,2.4
				C12-37.07,13.07-36,14.4-36z"/>
		</g>
		<g>
			<path class="st1" d="M2.4,0c1.32,0,2.4-1.07,2.4-2.4c0-1.32-1.08-2.4-2.4-2.4C1.07-4.8,0-3.72,0-2.4C0-1.07,1.07,0,2.4,0z"/>
			<path class="st1" d="M2.4-24c1.32,0,2.4-1.07,2.4-2.4c0-1.32-1.08-2.4-2.4-2.4c-1.33,0-2.4,1.08-2.4,2.4C0-25.07,1.07-24,2.4-24z
				"/>
		</g>
		<g>
			<path class="st1" d="M26.4-48c1.32,0,2.4-1.07,2.4-2.4c0-1.32-1.08-2.4-2.4-2.4c-1.33,0-2.4,1.08-2.4,2.4
				C24-49.07,25.07-48,26.4-48z"/>
			<path class="st1" d="M50.4-48c1.32,0,2.4-1.07,2.4-2.4c0-1.32-1.08-2.4-2.4-2.4c-1.33,0-2.4,1.08-2.4,2.4
				C48-49.07,49.07-48,50.4-48z"/>
		</g>
		<g>
			<path class="st1" d="M2.4-48c1.32,0,2.4-1.07,2.4-2.4c0-1.32-1.08-2.4-2.4-2.4c-1.33,0-2.4,1.08-2.4,2.4C0-49.07,1.07-48,2.4-48z
				"/>
		</g>
	</g>
</pattern>
<g id="BACKGROUND">
	<rect class="st2" width="750" height="500"/>
</g>
<g id="OBJECTS">
	<g>
		<g>
			<defs>
				<rect id="SVGID_1_" width="750" height="500"/>
			</defs>
			<clipPath id="SVGID_00000088127052358547035820000011477179243739176347_">
				<use xlink:href="#SVGID_1_"  style="overflow:visible;"/>
			</clipPath>
			<g style="clip-path:url(#SVGID_00000088127052358547035820000011477179243739176347_);">
				<g>
					<g>
						<g>
							<g>
								<path class="st4" d="M519.77,412.96c-1.15,0-2.09-0.94-2.09-2.09c0-1.15,0.94-2.09,2.09-2.09c1.15,0,2.09,0.94,2.09,2.09
									C521.86,412.03,520.92,412.96,519.77,412.96z"/>
								<path class="st4" d="M519.77,430.92c-1.15,0-2.09-0.94-2.09-2.09s0.94-2.09,2.09-2.09c1.15,0,2.09,0.94,2.09,2.09
									S520.92,430.92,519.77,430.92z"/>
								<path class="st4" d="M519.77,448.88c-1.15,0-2.09-0.94-2.09-2.09s0.94-2.09,2.09-2.09c1.15,0,2.09,0.94,2.09,2.09
									S520.92,448.88,519.77,448.88z"/>
								<path class="st4" d="M519.77,466.83c-1.15,0-2.09-0.94-2.09-2.09s0.94-2.09,2.09-2.09c1.15,0,2.09,0.94,2.09,2.09
									S520.92,466.83,519.77,466.83z"/>
							</g>
						</g>
					</g>
					<g>
						<g>
							<g>
								<path class="st4" d="M519.77,484.3c-1.15,0-2.09-0.94-2.09-2.09s0.94-2.09,2.09-2.09c1.15,0,2.09,0.94,2.09,2.09
									S520.92,484.3,519.77,484.3z"/>
								<path class="st4" d="M519.77,502.26c-1.15,0-2.09-0.94-2.09-2.09s0.94-2.09,2.09-2.09c1.15,0,2.09,0.94,2.09,2.09
									S520.92,502.26,519.77,502.26z"/>
								<path class="st4" d="M519.77,520.21c-1.15,0-2.09-0.94-2.09-2.09c0-1.15,0.94-2.09,2.09-2.09c1.15,0,2.09,0.94,2.09,2.09
									C521.86,519.28,520.92,520.21,519.77,520.21z"/>
								<path class="st4" d="M519.77,538.17c-1.15,0-2.09-0.94-2.09-2.09c0-1.15,0.94-2.09,2.09-2.09c1.15,0,2.09,0.94,2.09,2.09
									C521.86,537.23,520.92,538.17,519.77,538.17z"/>
							</g>
						</g>
					</g>
				</g>
				<g>
					<g>
						<g>
							<g>
								<path class="st4" d="M498.77,412.96c-1.15,0-2.09-0.94-2.09-2.09c0-1.15,0.94-2.09,2.09-2.09c1.15,0,2.09,0.94,2.09,2.09
									C500.86,412.03,499.92,412.96,498.77,412.96z"/>
								<path class="st4" d="M498.77,430.92c-1.15,0-2.09-0.94-2.09-2.09s0.94-2.09,2.09-2.09c1.15,0,2.09,0.94,2.09,2.09
									S499.92,430.92,498.77,430.92z"/>
								<path class="st4" d="M498.77,448.88c-1.15,0-2.09-0.94-2.09-2.09s0.94-2.09,2.09-2.09c1.15,0,2.09,0.94,2.09,2.09
									S499.92,448.88,498.77,448.88z"/>
								<path class="st4" d="M498.77,466.83c-1.15,0-2.09-0.94-2.09-2.09s0.94-2.09,2.09-2.09c1.15,0,2.09,0.94,2.09,2.09
									S499.92,466.83,498.77,466.83z"/>
							</g>
						</g>
					</g>
					<g>
						<g>
							<g>
								<path class="st4" d="M498.77,484.3c-1.15,0-2.09-0.94-2.09-2.09s0.94-2.09,2.09-2.09c1.15,0,2.09,0.94,2.09,2.09
									S499.92,484.3,498.77,484.3z"/>
								<path class="st4" d="M498.77,502.26c-1.15,0-2.09-0.94-2.09-2.09s0.94-2.09,2.09-2.09c1.15,0,2.09,0.94,2.09,2.09
									S499.92,502.26,498.77,502.26z"/>
								<path class="st4" d="M498.77,520.21c-1.15,0-2.09-0.94-2.09-2.09c0-1.15,0.94-2.09,2.09-2.09c1.15,0,2.09,0.94,2.09,2.09
									C500.86,519.28,499.92,520.21,498.77,520.21z"/>
								<path class="st4" d="M498.77,538.17c-1.15,0-2.09-0.94-2.09-2.09c0-1.15,0.94-2.09,2.09-2.09c1.15,0,2.09,0.94,2.09,2.09
									C500.86,537.23,499.92,538.17,498.77,538.17z"/>
							</g>
						</g>
					</g>
				</g>
			</g>
			<g style="clip-path:url(#SVGID_00000088127052358547035820000011477179243739176347_);">
				<rect x="25.13" y="286.96" class="st5" width="78.21" height="78.21"/>
				<polyline class="st5" points="25.13,365.17 54.65,394.69 133.57,394.69 133.57,316.16 103.34,286.96 				"/>
				<line class="st5" x1="103.34" y1="365.17" x2="133.22" y2="395.04"/>
			</g>
			<g style="clip-path:url(#SVGID_00000088127052358547035820000011477179243739176347_);">
				<g>
					
						<rect x="442.05" y="-44.77" transform="matrix(-1 -1.224647e-16 1.224647e-16 -1 954.2602 -19.3637)" class="st5" width="70.17" height="70.17"/>
					<polyline class="st5" points="512.21,25.4 485.73,51.89 414.92,51.89 414.92,-18.57 441.58,-45.23 					"/>
					<line class="st5" x1="442.05" y1="25.4" x2="415.24" y2="52.21"/>
				</g>
			</g>
			<g style="clip-path:url(#SVGID_00000088127052358547035820000011477179243739176347_);">
				<g>
					<polyline class="st6" points="560.43,333.53 570.53,345.53 580.62,333.53 590.72,345.53 600.81,333.53 610.91,345.53 
						621.01,333.53 631.11,345.53 641.2,333.53 651.31,345.53 661.41,333.53 					"/>
				</g>
				<g>
					<polyline class="st6" points="560.43,349.46 570.53,361.46 580.62,349.46 590.72,361.46 600.81,349.46 610.91,361.46 
						621.01,349.46 631.11,361.46 641.2,349.46 651.31,361.46 661.41,349.46 					"/>
				</g>
			</g>
			<g style="clip-path:url(#SVGID_00000088127052358547035820000011477179243739176347_);">
				<g>
					<polyline class="st6" points="148.84,-3.78 159.99,8.22 171.13,-3.78 182.28,8.22 193.43,-3.78 204.57,8.22 215.72,-3.78 
						226.87,8.22 238.02,-3.78 249.17,8.22 260.33,-3.78 					"/>
				</g>
				<g>
					<polyline class="st6" points="148.84,13.81 159.99,25.81 171.13,13.81 182.28,25.81 193.43,13.81 204.57,25.81 215.72,13.81 
						226.87,25.81 238.02,13.81 249.17,25.81 260.33,13.81 					"/>
				</g>
			</g>
			<g style="clip-path:url(#SVGID_00000088127052358547035820000011477179243739176347_);">
				<g>
					<g>
						<g>
							<path class="st4" d="M-9.84,54.86c0,1.94-1.57,3.51-3.51,3.51c-1.94,0-3.51-1.57-3.51-3.51c0-1.94,1.57-3.51,3.51-3.51
								C-11.42,51.34-9.84,52.92-9.84,54.86z"/>
							<path class="st4" d="M20.34,54.86c0,1.94-1.57,3.51-3.51,3.51s-3.51-1.57-3.51-3.51c0-1.94,1.57-3.51,3.51-3.51
								S20.34,52.92,20.34,54.86z"/>
							<path class="st4" d="M50.53,54.86c0,1.94-1.57,3.51-3.51,3.51s-3.51-1.57-3.51-3.51c0-1.94,1.57-3.51,3.51-3.51
								S50.53,52.92,50.53,54.86z"/>
							<path class="st4" d="M80.71,54.86c0,1.94-1.57,3.51-3.51,3.51c-1.94,0-3.51-1.57-3.51-3.51c0-1.94,1.57-3.51,3.51-3.51
								C79.14,51.34,80.71,52.92,80.71,54.86z"/>
						</g>
						<g>
							<path class="st4" d="M-9.84,83.48c0,1.94-1.57,3.51-3.51,3.51c-1.94,0-3.51-1.57-3.51-3.51c0-1.94,1.57-3.51,3.51-3.51
								C-11.42,79.97-9.84,81.54-9.84,83.48z"/>
							<path class="st4" d="M20.34,83.48c0,1.94-1.57,3.51-3.51,3.51s-3.51-1.57-3.51-3.51c0-1.94,1.57-3.51,3.51-3.51
								S20.34,81.54,20.34,83.48z"/>
							<path class="st4" d="M50.53,83.48c0,1.94-1.57,3.51-3.51,3.51s-3.51-1.57-3.51-3.51c0-1.94,1.57-3.51,3.51-3.51
								S50.53,81.54,50.53,83.48z"/>
							<path class="st4" d="M80.71,83.48c0,1.94-1.57,3.51-3.51,3.51c-1.94,0-3.51-1.57-3.51-3.51c0-1.94,1.57-3.51,3.51-3.51
								C79.14,79.97,80.71,81.54,80.71,83.48z"/>
						</g>
						<g>
							<path class="st4" d="M-9.84,112.11c0,1.94-1.57,3.51-3.51,3.51c-1.94,0-3.51-1.57-3.51-3.51c0-1.94,1.57-3.51,3.51-3.51
								C-11.42,108.6-9.84,110.17-9.84,112.11z"/>
							<path class="st4" d="M20.34,112.11c0,1.94-1.57,3.51-3.51,3.51s-3.51-1.57-3.51-3.51c0-1.94,1.57-3.51,3.51-3.51
								S20.34,110.17,20.34,112.11z"/>
							<path class="st4" d="M50.53,112.11c0,1.94-1.57,3.51-3.51,3.51s-3.51-1.57-3.51-3.51c0-1.94,1.57-3.51,3.51-3.51
								S50.53,110.17,50.53,112.11z"/>
							<path class="st4" d="M80.71,112.11c0,1.94-1.57,3.51-3.51,3.51c-1.94,0-3.51-1.57-3.51-3.51c0-1.94,1.57-3.51,3.51-3.51
								C79.14,108.6,80.71,110.17,80.71,112.11z"/>
						</g>
						<g>
							<path class="st4" d="M-9.84,140.74c0,1.94-1.57,3.51-3.51,3.51c-1.94,0-3.51-1.57-3.51-3.51c0-1.94,1.57-3.51,3.51-3.51
								C-11.42,137.22-9.84,138.8-9.84,140.74z"/>
							<path class="st4" d="M20.34,140.74c0,1.94-1.57,3.51-3.51,3.51s-3.51-1.57-3.51-3.51c0-1.94,1.57-3.51,3.51-3.51
								S20.34,138.8,20.34,140.74z"/>
							<path class="st4" d="M50.53,140.74c0,1.94-1.57,3.51-3.51,3.51s-3.51-1.57-3.51-3.51c0-1.94,1.57-3.51,3.51-3.51
								S50.53,138.8,50.53,140.74z"/>
							<path class="st4" d="M80.71,140.74c0,1.94-1.57,3.51-3.51,3.51c-1.94,0-3.51-1.57-3.51-3.51c0-1.94,1.57-3.51,3.51-3.51
								C79.14,137.22,80.71,138.8,80.71,140.74z"/>
						</g>
					</g>
				</g>
				<g>
					<g>
						<g>
							<path class="st4" d="M-9.84-56.57c0,1.94-1.57,3.51-3.51,3.51c-1.94,0-3.51-1.57-3.51-3.51c0-1.94,1.57-3.51,3.51-3.51
								C-11.42-60.08-9.84-58.51-9.84-56.57z"/>
							<path class="st4" d="M20.34-56.57c0,1.94-1.57,3.51-3.51,3.51s-3.51-1.57-3.51-3.51c0-1.94,1.57-3.51,3.51-3.51
								S20.34-58.51,20.34-56.57z"/>
							<path class="st4" d="M50.53-56.57c0,1.94-1.57,3.51-3.51,3.51s-3.51-1.57-3.51-3.51c0-1.94,1.57-3.51,3.51-3.51
								S50.53-58.51,50.53-56.57z"/>
							<path class="st4" d="M80.71-56.57c0,1.94-1.57,3.51-3.51,3.51c-1.94,0-3.51-1.57-3.51-3.51c0-1.94,1.57-3.51,3.51-3.51
								C79.14-60.08,80.71-58.51,80.71-56.57z"/>
						</g>
						<g>
							<path class="st4" d="M-9.84-27.94c0,1.94-1.57,3.51-3.51,3.51c-1.94,0-3.51-1.57-3.51-3.51c0-1.94,1.57-3.51,3.51-3.51
								C-11.42-31.46-9.84-29.88-9.84-27.94z"/>
							<path class="st4" d="M20.34-27.94c0,1.94-1.57,3.51-3.51,3.51s-3.51-1.57-3.51-3.51c0-1.94,1.57-3.51,3.51-3.51
								S20.34-29.88,20.34-27.94z"/>
							<path class="st4" d="M50.53-27.94c0,1.94-1.57,3.51-3.51,3.51s-3.51-1.57-3.51-3.51c0-1.94,1.57-3.51,3.51-3.51
								S50.53-29.88,50.53-27.94z"/>
							<path class="st4" d="M80.71-27.94c0,1.94-1.57,3.51-3.51,3.51c-1.94,0-3.51-1.57-3.51-3.51c0-1.94,1.57-3.51,3.51-3.51
								C79.14-31.46,80.71-29.88,80.71-27.94z"/>
						</g>
						<g>
							<path class="st4" d="M-9.84,0.68c0,1.94-1.57,3.51-3.51,3.51c-1.94,0-3.51-1.57-3.51-3.51s1.57-3.51,3.51-3.51
								C-11.42-2.83-9.84-1.26-9.84,0.68z"/>
							<path class="st4" d="M20.34,0.68c0,1.94-1.57,3.51-3.51,3.51s-3.51-1.57-3.51-3.51s1.57-3.51,3.51-3.51
								S20.34-1.26,20.34,0.68z"/>
							<path class="st4" d="M50.53,0.68c0,1.94-1.57,3.51-3.51,3.51S43.5,2.62,43.5,0.68s1.57-3.51,3.51-3.51S50.53-1.26,50.53,0.68
								z"/>
							<path class="st4" d="M80.71,0.68c0,1.94-1.57,3.51-3.51,3.51c-1.94,0-3.51-1.57-3.51-3.51s1.57-3.51,3.51-3.51
								C79.14-2.83,80.71-1.26,80.71,0.68z"/>
						</g>
						<g>
							<path class="st4" d="M-9.84,29.31c0,1.94-1.57,3.51-3.51,3.51c-1.94,0-3.51-1.57-3.51-3.51c0-1.94,1.57-3.51,3.51-3.51
								C-11.42,25.8-9.84,27.37-9.84,29.31z"/>
							<path class="st4" d="M20.34,29.31c0,1.94-1.57,3.51-3.51,3.51s-3.51-1.57-3.51-3.51c0-1.94,1.57-3.51,3.51-3.51
								S20.34,27.37,20.34,29.31z"/>
							<path class="st4" d="M50.53,29.31c0,1.94-1.57,3.51-3.51,3.51s-3.51-1.57-3.51-3.51c0-1.94,1.57-3.51,3.51-3.51
								S50.53,27.37,50.53,29.31z"/>
							<path class="st4" d="M80.71,29.31c0,1.94-1.57,3.51-3.51,3.51c-1.94,0-3.51-1.57-3.51-3.51c0-1.94,1.57-3.51,3.51-3.51
								C79.14,25.8,80.71,27.37,80.71,29.31z"/>
						</g>
					</g>
				</g>
			</g>
			
				<pattern  id="SVGID_00000103964157658403031840000002976050576552231349_" xlink:href="#_x36__dpi_20_x25_" patternTransform="matrix(0.9833 0 0 0.9833 -15.9903 -119.8113)">
			</pattern>
			
				<circle style="clip-path:url(#SVGID_00000088127052358547035820000011477179243739176347_);fill:url(#SVGID_00000103964157658403031840000002976050576552231349_);" cx="700.19" cy="48.2" r="108.09"/>
			
				<pattern  id="SVGID_00000119081135137739227370000003476074643203791786_" xlink:href="#_x36__dpi_20_x25_" patternTransform="matrix(0.4625 -0.8677 0.8677 0.4625 2182.082 -11121.4561)">
			</pattern>
			
				<circle style="clip-path:url(#SVGID_00000088127052358547035820000011477179243739176347_);fill:url(#SVGID_00000119081135137739227370000003476074643203791786_);" cx="74.37" cy="546.74" r="108.09"/>
			<g style="clip-path:url(#SVGID_00000088127052358547035820000011477179243739176347_);">
				<path class="st9" d="M319.83,427.81c0,17.88-14.49,32.37-32.37,32.37c-17.88,0-32.37-14.49-32.37-32.37
					c0-17.88,14.49-32.37,32.37-32.37"/>
				<g>
					<line class="st10" x1="196.87" y1="446.36" x2="212.08" y2="431.15"/>
					<line class="st10" x1="210.13" y1="446.36" x2="225.34" y2="431.15"/>
					<line class="st10" x1="223.39" y1="446.36" x2="238.6" y2="431.15"/>
					<line class="st10" x1="236.65" y1="446.36" x2="251.86" y2="431.15"/>
					<line class="st10" x1="249.91" y1="446.36" x2="265.13" y2="431.15"/>
					<line class="st10" x1="263.17" y1="446.36" x2="278.39" y2="431.15"/>
					<line class="st10" x1="276.44" y1="446.36" x2="291.65" y2="431.15"/>
				</g>
			</g>
			<g style="clip-path:url(#SVGID_00000088127052358547035820000011477179243739176347_);">
				<g>
					<circle class="st11" cx="723.55" cy="509.42" r="81.52"/>
					<path class="st12" d="M723.55,605.03c-52.72,0-95.61-42.89-95.61-95.61s42.89-95.61,95.61-95.61
						c52.72,0,95.61,42.89,95.61,95.61S776.27,605.03,723.55,605.03z"/>
					<circle class="st12" cx="723.55" cy="509.42" r="81.52"/>
					<circle class="st12" cx="723.55" cy="509.42" r="66.4"/>
					<circle class="st12" cx="723.55" cy="509.42" r="52.55"/>
				</g>
				<circle class="st13" cx="626.93" cy="443.7" r="28.42"/>
			</g>
			
				<rect x="-30.43" y="230.9" style="clip-path:url(#SVGID_00000088127052358547035820000011477179243739176347_);fill:#3F3F3F;" width="65.86" height="9.67"/>
			
				<rect x="45.43" y="230.9" style="clip-path:url(#SVGID_00000088127052358547035820000011477179243739176347_);fill:#3F3F3F;" width="10.57" height="9.67"/>
			<g style="clip-path:url(#SVGID_00000088127052358547035820000011477179243739176347_);">
				<rect x="720.82" y="286.61" class="st15" width="76.14" height="10.21"/>
				<rect x="684.1" y="286.61" class="st15" width="21.47" height="10.21"/>
			</g>
			
				<rect x="124.96" y="387.32" style="clip-path:url(#SVGID_00000088127052358547035820000011477179243739176347_);fill:#315AFE;" width="21.47" height="21.47"/>
			
				<ellipse transform="matrix(0.942 -0.3356 0.3356 0.942 -148.1893 166.5203)" style="clip-path:url(#SVGID_00000088127052358547035820000011477179243739176347_);fill:none;stroke:#315AFE;stroke-width:19;stroke-miterlimit:10;" cx="407.71" cy="512.03" rx="43.94" ry="43.94"/>
		</g>
	</g>
</g>
</svg>
